<svg version="1.1" viewBox="0.0 0.0 546.6719160104986 402.3070866141732" fill="none" stroke="none" stroke-linecap="square" stroke-miterlimit="10" xmlns:xlink="http://www.w3.org/1999/xlink" xmlns="http://www.w3.org/2000/svg"><clipPath id="p.0"><path d="m0 0l546.67194 0l0 402.3071l-546.67194 0l0 -402.3071z" clip-rule="nonzero"/></clipPath><g clip-path="url(#p.0)"><path fill="#000000" fill-opacity="0.0" d="m0 0l546.67194 0l0 402.3071l-546.67194 0z" fill-rule="evenodd"/><path fill="#000000" fill-opacity="0.0" d="m0 -131.6273l42.929134 0l0 665.7953l-42.929134 0z" fill-rule="evenodd"/><path fill="#000000" d="m144.67188 393.01334l-92.1875 -320.5625l-43.484375 0l0 -45.3125l138.54688 0l0 45.3125l-43.5 0l68.5 236.96875l65.875 -236.96875l-43.21875 0l0 -45.3125l166.39062 0l0 45.3125l-42.4375 0l66.140625 236.96875l67.1875 -236.96875l-42.96875 0l0 -45.3125l133.07812 0l0 45.3125l-42.71875 0l-90.359375 320.5625l-51.828125 0l-81.5 -286.45312l-80.984375 286.45312l-50.53125 0z" fill-rule="nonzero"/></g></svg>